# xmcd
#
# Track frame offsets:
#	182
#	18907
#	33082
#	46807
#	61957
#	74707
#	86707
#	104332
#	122032
#	141682
#	155182
#	170782
#	192982
#	211732
#	225082
#	237682
#
# Disc length: 3340 seconds
#
# Revision: 0
# Processed by: cddbd v1.5.2PL0 Copyright (c) Steve Scherf et al.
# Submitted via: audiograbber 1.83.01
#
DISCID=e70d0a10
DTITLE=Dyna Rae - Anytime
DYEAR=1995
DGENRE=Country
TTITLE0=My Broken Shattered Heart
TTITLE1=Just As Long As You Love Me
TTITLE2=(Without You) What Wouoldn I Do With Me
TTITLE3=I've Got To Pull Myself Together
TTITLE4=Please Help Me I'm Falling
TTITLE5=You've Got This Heart Of Mine Beating
TTITLE6=Under Your Spell Again
TTITLE7=Dust In The Arena
TTITLE8=Anytime
TTITLE9=Just In Case
TTITLE10=Oh What It Did For Me
TTITLE11=You're Not The Only One
TTITLE12=Baby Blue
TTITLE13=Dirty Rotten Lies
TTITLE14=One Step Over The Border
TTITLE15=This Country's Rockin' 
EXTD=
EXTT0=
EXTT1=
EXTT2=
EXTT3=
EXTT4=
EXTT5=
EXTT6=
EXTT7=
EXTT8=
EXTT9=
EXTT10=
EXTT11=
EXTT12=
EXTT13=
EXTT14=
EXTT15=
PLAYORDER=
